<?xml version="1.0" encoding="utf-8"?>
<!-- Generator: Adobe Illustrator 23.0.1, SVG Export Plug-In . SVG Version: 6.00 Build 0)  -->
<svg version="1.1" id="Capa_1" xmlns="http://www.w3.org/2000/svg" xmlns:xlink="http://www.w3.org/1999/xlink" x="0px" y="0px"
	 viewBox="0 0 512 512" style="enable-background:new 0 0 512 512;" xml:space="preserve">
<style type="text/css">
	.st0{fill:#1C23F5;}
</style>
<path class="st0" d="M0,3.5v504.9c0,2,1.6,3.5,3.5,3.5h504.9c2,0,3.5-1.6,3.5-3.5V3.5c0-2-1.6-3.5-3.5-3.5H3.5C1.6,0,0,1.6,0,3.5z
	 M157.2,422.4c0,6.5-5.3,11.8-11.8,11.8H95.2c-6.5,0-11.8-5.3-11.8-11.8V208c0-6.5,5.3-11.8,11.8-11.8h50.2
	c6.5,0,11.8,5.3,11.8,11.8V422.4z M120.2,163.5c-22.8,0.5-42.9-18.6-42.9-42.9c0-23.6,19.4-42.8,43.2-42.8c23.5,0,42.8,19.4,42.7,43
	C163.2,145.4,142.7,164,120.2,163.5z M434.7,429.3c0,2.7-2.2,4.9-4.9,4.9l-64.2,0c-2.7,0-4.9-2.2-4.9-4.9V297
	c0-11.4-4.6-21.8-12.1-29.3c-7.8-7.8-18.6-12.5-30.6-12.1c-22.5,0.7-40.2,19.6-40.2,42.1v131.7c0,2.7-2.2,4.9-4.9,4.9l-64.1,0
	c-2.7,0-4.9-2.2-4.9-4.9V201.1c0-2.7,2.2-4.9,4.9-4.9h62.7c2.7,0,4.9,2.2,4.9,4.9v26.3c0,0,0.3,0,0.7,0.1c1.2-2.2,2.5-4.3,4-6.4
	c13.1-18.7,34.8-31,59.4-31h12.9c44.9,0,81.4,36.4,81.4,81.4L434.7,429.3L434.7,429.3z"/>
</svg>
