<?xml version="1.0" standalone="no"?>
<!DOCTYPE svg PUBLIC "-//W3C//DTD SVG 20010904//EN"
 "http://www.w3.org/TR/2001/REC-SVG-20010904/DTD/svg10.dtd">
<svg version="1.0" xmlns="http://www.w3.org/2000/svg"
 width="250.000000pt" height="250.000000pt" viewBox="0 0 250.000000 250.000000"
 preserveAspectRatio="xMidYMid meet">
<metadata>
Created by potrace 1.11, written by Peter Selinger 2001-2013
</metadata>
<g transform="translate(0.000000,250.000000) scale(0.100000,-0.100000)"
fill="#000000" stroke="none">
<path d="M1737 1750 c-161 -41 -243 -164 -203 -304 16 -53 50 -104 158 -231
27 -33 59 -78 69 -100 21 -46 25 -128 6 -165 -18 -37 -72 -60 -142 -60 -74 0
-134 26 -166 71 -21 29 -24 45 -24 117 0 51 -4 82 -11 82 -6 0 -19 -35 -29
-77 -10 -43 -28 -108 -41 -145 -24 -72 -14 -94 18 -38 9 17 24 30 33 30 8 0
44 -15 78 -32 59 -32 67 -33 172 -32 91 0 121 4 170 24 78 30 148 98 165 159
25 96 -9 173 -144 321 -127 140 -155 206 -121 286 30 71 157 95 240 44 43 -27
65 -75 65 -144 0 -59 15 -76 25 -28 7 28 52 181 61 207 4 9 0 15 -9 15 -8 0
-18 -11 -21 -25 -10 -39 -29 -40 -99 -5 -71 35 -179 48 -250 30z"/>
<path d="M590 1730 c0 -5 8 -10 18 -10 29 0 62 -29 62 -55 0 -45 -179 -698
-198 -724 -11 -16 -32 -28 -52 -31 -18 -3 -35 -11 -38 -17 -6 -20 420 -18 513
2 261 55 446 277 449 540 1 115 -18 169 -81 225 -80 70 -133 80 -424 80 -159
0 -249 -4 -249 -10z m460 -32 c32 -16 52 -36 70 -68 22 -40 25 -56 25 -150 -1
-184 -64 -363 -163 -467 -75 -78 -181 -123 -257 -109 -31 6 -35 10 -35 37 0
51 182 729 203 755 25 32 95 33 157 2z"/>
</g>
</svg>
